# xmcd
# 
# Track frame offsets:
#     150
#     24444
#     39881
#     55832
#     72830
#     93268
#     115564
#     131629
#     152348
#     175300
#     192697
#     208135
# 
# Disc length: 3040
# 
# Revision: 1
# Processed by: cddbd v1.5.2PL0 Copyright (c) Steve Scherf et al.
# Submitted via: fre:ac v1.0.17
# 
DISCID=9b0bde0c
DTITLE=The Quireboys - White Trash Blues
DYEAR=2017
DGENRE=Rock
TTITLE0=Crosseyed Cat
TTITLE1=Boom Boom
TTITLE2=I Wish You Would
TTITLE3=Take Out Some Insurance
TTITLE4=Going Down
TTITLE5=Help Me
TTITLE6=Shame Shame Shame
TTITLE7=(I'm Your) Hoochie Coochie Man
TTITLE8=Leaving Trunk
TTITLE9=I'm A King Bee
TTITLE10=Walking The Dog
TTITLE11=Little Queenie
EXTD=
EXTT0=
EXTT1=
EXTT2=
EXTT3=
EXTT4=
EXTT5=
EXTT6=
EXTT7=
EXTT8=
EXTT9=
EXTT10=
EXTT11=
PLAYORDER=
